#N canvas 560 413 450 300 10;
#X obj 97 125 metro 1000;
#X obj 97 164 bng 15 250 50 0 empty empty empty 17 7 0 10 -262144 -1
-1;
#X obj 97 71 tgl 15 0 empty empty empty 17 7 0 10 -262144 -1 -1 0 1
;
#X text 94 32 Lesson 2: Control Blink Rate;
#X floatatom 154 88 5 0 0 0 - - -;
#X text 146 69 "knob";
#X connect 0 0 1 0;
#X connect 2 0 0 0;
#X connect 4 0 0 1;
