#N canvas 811 962 538 323 10;
#X obj 107 218 metro 1000;
#X obj 107 257 bng 15 250 50 0 empty empty empty 17 7 0 10 -262144
-1 -1;
#X obj 107 105 tgl 15 0 empty empty empty 17 7 0 10 -262144 -1 -1 0
1;
#X floatatom 164 104 5 0 0 0 - - -;
#X text 104 42 Lesson 3: If value in a certain range;
#X obj 188 166 sel 500;
#X obj 302 166 threshold 500 0 500 0;
#X text 160 83 "knob";
#X obj 302 218 print exceeds-threshold;
#X obj 188 218 print found;
#X connect 0 0 1 0;
#X connect 2 0 0 0;
#X connect 3 0 0 1;
#X connect 3 0 5 0;
#X connect 3 0 6 0;
#X connect 5 0 9 0;
#X connect 6 0 8 0;
