#N canvas 541 813 817 307 10;
#X obj 46 202 metro 1000;
#X obj 46 241 bng 15 250 50 0 empty empty empty 17 7 0 10 -262144 -1
-1;
#X obj 46 90 tgl 15 0 empty empty empty 17 7 0 10 -262144 -1 -1 0 1
;
#X floatatom 103 88 5 0 0 0 - - -;
#X obj 127 150 sel 500;
#X obj 127 202 print sel;
#X obj 211 202 print threshold;
#X obj 211 150 threshold 500 0 500 0;
#X obj 361 241 tgl 15 0 empty empty empty 17 7 0 10 -262144 -1 -1 0
1;
#X obj 361 180 t b;
#X obj 330 180 t b;
#X msg 330 202 1;
#X msg 361 202 0;
#X text 43 27 Lesson 4: Conditional Modes;
#X text 98 65 "knob";
#X obj 463 86 key;
#X floatatom 473 119 5 0 0 0 - - -;
#X obj 463 146 sel 49;
#X obj 524 146 sel 50;
#X obj 495 239 tgl 15 0 empty empty empty 17 7 0 10 -262144 -1 -1 1
1;
#X obj 525 178 t b;
#X obj 464 178 t b;
#X msg 464 200 1;
#X msg 525 200 0;
#X floatatom 685 115 5 0 0 0 - - -;
#X floatatom 731 114 5 0 0 0 - - -;
#X text 461 60 keyboard input;
#X text 683 59 midi input;
#X floatatom 773 114 5 0 0 0 - - -;
#X obj 685 86 ctlin;
#X connect 0 0 1 0;
#X connect 2 0 0 0;
#X connect 3 0 0 1;
#X connect 3 0 4 0;
#X connect 3 0 7 0;
#X connect 4 0 5 0;
#X connect 7 0 6 0;
#X connect 7 0 10 0;
#X connect 7 1 9 0;
#X connect 8 0 2 0;
#X connect 9 0 12 0;
#X connect 10 0 11 0;
#X connect 11 0 8 0;
#X connect 12 0 8 0;
#X connect 15 0 16 0;
#X connect 15 0 17 0;
#X connect 15 0 18 0;
#X connect 17 0 21 0;
#X connect 18 0 20 0;
#X connect 20 0 23 0;
#X connect 21 0 22 0;
#X connect 22 0 19 0;
#X connect 23 0 19 0;
#X connect 29 0 24 0;
#X connect 29 1 25 0;
#X connect 29 2 28 0;
