#N canvas 488 23 1332 998 10;
#X obj 94 478 hsl 200 20 0 1 0 0 empty empty crossfade 20 10 0 14 -257472
-1 -1 9667 1;
#X obj 203 568 *~;
#X obj 91 537 -;
#X obj 91 564 *~;
#X obj 145 616 +~;
#X msg 91 517 1 \$1;
#X obj 144 789 *~;
#X obj 220 378 osc~ 220;
#X obj 159 650 vsl 15 128 0 1 0 0 empty empty osc 0 -8 0 8 -262144
-1 -1 5643 1;
#X floatatom 107 334 5 0 0 0 - - -;
#X floatatom 220 334 5 0 0 0 - - -;
#X obj 1148 -231 pddp/dsp;
#X obj 700 65 maxlib/scale 0 1 0 10;
#X obj 1037 -52 bng 15 250 50 0 empty empty empty 0 -6 0 8 -262144
-1 -1;
#X obj 700 -80 * 10;
#X floatatom 700 -57 5 0 0 0 - - -;
#X floatatom 700 88 5 0 0 0 - - -;
#X obj 716 721 dac~;
#X obj 716 695 *~;
#X text 715 738 hear it;
#X obj 731 558 vsl 25 128 0 1 0 0 empty empty gain 0 -8 0 8 -262144
-1 -1 3700 1;
#X obj 107 379 osc~ 330;
#X msg 977 380 1;
#X text 1012 379 starts playback;
#X obj 1019 522 vsl 15 128 0 1 0 0 empty empty sample_dry 0 -8 0 8
-262144 -1 -1 8500 1;
#X obj 1004 662 *~;
#X obj 977 327 t b b;
#X obj 1004 455 +~;
#X obj 698 333 r~ audio;
#X obj 1128 664 *~;
#X obj 1143 524 vsl 15 128 0 1 0 0 empty empty sample_wet 0 -8 0 8
-262144 -1 -1 0 1;
#X obj 1004 687 s~ audio_sample;
#X obj 1128 688 s~ audio_sample_delay;
#X obj 698 354 r~ audio_sample;
#X floatatom 1203 438 5 0 0 0 - - -;
#X text 1201 416 delay time (s);
#X obj 1128 487 delay~ 522050;
#X obj 1203 461 * 44100;
#X obj 1004 413 readsf~ 2;
#X text 103 316 FREQUENCY 1;
#X text 215 316 FREQUENCY 2;
#X obj 299 379 phasor~;
#X text 1033 -37 bang;
#X text 736 -80 Multiplication (magnification);
#X text 768 -43 Other operators;
#X obj 770 -23 +;
#X obj 799 -23 -;
#X obj 828 -23 * -1;
#X text 861 -24 etc.;
#X text 698 -123 Mathematical Operators -------------------;
#X text 697 -156 SCALING DATA;
#X floatatom 700 171 5 0 0 0 - - -;
#X msg 1004 353 open samples/bell1.wav;
#X obj 698 374 r~ audio_sample_delay;
#X obj 144 814 s~ audio;
#X obj 698 495 freeverb~;
#X obj 718 444 hsl 200 20 0 1 0 0 empty empty reverb_mix 20 10 0 14
-257472 -1 -1 0 1;
#N canvas 613 434 450 300 reverb 0;
#X obj 119 -107 -;
#X msg 119 -127 1 \$1;
#X obj 68 -183 inlet;
#X obj 77 33 outlet;
#X msg 58 -44 wet \$1;
#X msg 120 -44 dry \$1;
#X connect 0 0 5 0;
#X connect 1 0 0 0;
#X connect 2 0 1 0;
#X connect 2 0 4 0;
#X connect 4 0 3 0;
#X connect 5 0 3 0;
#X restore 715 469 pd reverb;
#X text 713 425 dry;
#X text 901 427 wet;
#X obj 741 399 loadbang;
#X msg 741 422 0;
#X obj 716 523 +~;
#X text 697 295 MAIN OUTPUT;
#X text 975 295 PLAY A SAMPLE;
#X text 105 288 XFADE BETWEEN TWO FREQUENCIES;
#X text 31 183 RAW VALUES------------^;
#X floatatom 254 54 5 0 0 0 - - -;
#X obj 254 84 vsl 15 75 0 1 0 0 empty empty A0 0 85 0 10 -262144 -1
-1 3288 1;
#X obj 38 98 vsl 15 60 0.03 0.84 0 0 empty empty A0 0 69 0 10 -262144
-1 -1 850 1;
#X obj 93 97 vsl 15 60 0.03 0.84 0 0 empty empty A1 0 69 0 10 -262144
-1 -1 1341 1;
#X obj 149 98 vsl 15 60 0.03 0.84 0 0 empty empty A2 0 69 0 10 -262144
-1 -1 0 1;
#N canvas 36 176 499 396 efficient 0;
#X obj 6 7 inlet;
#X obj 6 50 outlet;
#X obj 54 50 inlet;
#X obj 54 93 outlet;
#X obj 103 93 inlet;
#X obj 103 136 outlet;
#X obj 60 290 receive ARDUINO_TEST_RESET;
#X obj 6 28 mapping/resample 75;
#X obj 54 71 mapping/resample 75;
#X obj 103 114 mapping/resample 75;
#X connect 0 0 7 0;
#X connect 2 0 8 0;
#X connect 4 0 9 0;
#X connect 6 0 7 0;
#X connect 6 0 8 0;
#X connect 6 0 9 0;
#X connect 7 0 1 0;
#X connect 8 0 3 0;
#X connect 9 0 5 0;
#X restore 38 43 pd efficient values;
#X msg 33 456 0;
#X obj 38 -36 arduino 2;
#X msg 49 -155 close;
#X msg 48 -132 devices;
#X msg 38 -178 open \$1;
#X obj 38 -9 route analog;
#X obj 38 16 route 0 1 2;
#X floatatom 363 613 5 0 1 0 - - -;
#X floatatom 296 587 5 0 0 0 - - -;
#X floatatom 321 610 5 0 0 0 - - -;
#X obj 363 568 vsl 15 35 0 1 0 0 empty empty xfade 0 -8 0 8 -262144
-1 -1 0 1;
#X obj 296 635 scs_chord;
#X text 292 532 XFADE ABSTRACTION;
#X text 291 663 Abstractions are patches you create and embed into
other patches as if it were an object. This becomes useful when you
are repeatedly using a section of your patch. Note that saving the
abstracted patch will change the object in every single instance it's
used. Abstractions differ from subpatches [pd foo] in that subpatches
are exclusive to their parent. Note: abstracted patches must be in
the same directory as the patch you want to embed them in.;
#X obj 38 -200 hradio 15 1 0 4 empty empty empty 0 -8 0 10 -262144
-1 -1 3;
#X text 39 -233 ARDUINO CONNECT;
#X text 42 -217 0;
#X text 56 -217 1;
#X text 71 -217 2;
#X text 87 -217 3;
#X msg 56 -64 analogIns 1 1;
#N canvas 162 133 610 460 serin 0;
#X obj 59 337 outlet;
#X obj 59 266 trigger bang anything;
#X obj 201 286 list;
#X obj 60 61 tgl 15 0 junk_to_hide_inlet ARDUINO_TEST_RESET 0 5 9 1
12 -262130 -1 -1 1 1;
#X obj 75 61 tgl 15 0 junk_to_hide_inlet ARDUINO_TEST_RESET 1 5 9 1
12 -262130 -1 -1 1 1;
#X obj 90 61 tgl 15 0 junk_to_hide_inlet ARDUINO_TEST_RESET 2 5 9 1
12 -262130 -1 -1 0 1;
#X obj 105 61 tgl 15 0 junk_to_hide_inlet ARDUINO_TEST_RESET 3 5 9
1 12 -262130 -1 -1 0 1;
#X obj 120 61 tgl 15 0 junk_to_hide_inlet ARDUINO_TEST_RESET 4 5 9
1 12 -262130 -1 -1 0 1;
#X obj 135 61 tgl 15 0 junk_to_hide_inlet ARDUINO_TEST_RESET 5 5 9
1 12 -262130 -1 -1 0 1;
#X obj 150 61 tgl 15 0 junk_to_hide_inlet ARDUINO_TEST_RESET 6 5 9
1 12 -262130 -1 -1 0 1;
#X obj 165 61 tgl 15 0 junk_to_hide_inlet ARDUINO_TEST_RESET 7 5 9
1 12 -262130 -1 -1 0 1;
#X msg 59 210 analogIns \$1 \$2;
#X msg 35 106 0 \$1;
#X msg 70 106 1 \$1;
#X msg 105 106 2 \$1;
#X msg 140 106 3 \$1;
#X msg 175 106 4 \$1;
#X msg 210 106 5 \$1;
#X msg 245 106 6 \$1;
#X msg 280 106 7 \$1;
#X msg 202 307 set \$1 \$2 \$3;
#X connect 1 0 0 0;
#X connect 1 1 2 0;
#X connect 2 0 20 0;
#X connect 3 0 12 0;
#X connect 4 0 13 0;
#X connect 5 0 14 0;
#X connect 6 0 15 0;
#X connect 7 0 16 0;
#X connect 8 0 17 0;
#X connect 9 0 18 0;
#X connect 10 0 19 0;
#X connect 11 0 1 0;
#X connect 12 0 11 0;
#X connect 13 0 11 0;
#X connect 14 0 11 0;
#X connect 15 0 11 0;
#X connect 16 0 11 0;
#X connect 17 0 11 0;
#X connect 18 0 11 0;
#X connect 19 0 11 0;
#X connect 20 0 0 0;
#X coords 0 -1 1 1 120 16 1 60 60;
#X restore 56 -86 pd serin;
#X obj 273 82 s A0;
#X obj 700 -103 r A0;
#X obj 1037 -103 r A0;
#X obj 700 40 r A0;
#X obj 700 123 r A0;
#X obj 1037 -77 threshold 0.8 1 0.8 1;
#X obj 700 148 maxlib/scale 0 1 200 1200;
#X text 742 87 map (0 \, 1) to (0 \, 10);
#X floatatom 52 69 5 0 0 0 - - -;
#X floatatom 104 68 5 0 0 0 - - -;
#X floatatom 161 69 5 0 0 0 - - -;
#X text 743 170 map (0 \, 1) to (200 \, 1200);
#X obj 346 -97 maxlib/scale 0 0.33 0 1;
#X obj 291 0 tgl 15 0 empty empty empty 17 7 0 10 -262144 -1 -1 0 1
;
#X floatatom 326 1 5 2 20 0 - - -;
#X text 288 -19 smoothing on/off;
#X text 104 -201 Step 2: Select Port;
#X text 102 -132 Step 1: Determine port;
#X text 97 -155 comment;
#X text 305 -211 comment;
#X text 363 -4 amount (default 3);
#X text 57 -106 Step 3: Enable analogIns;
#X text 340 -153 CALIBRATE YOUR DATA;
#X text 340 -123 Option 1: Scale it ------------------------;
#N canvas 403 178 450 300 calibrate 0;
#X obj -13 77 maxlib/scale 0 0.33 0 1;
#X obj 151 173 switch 2;
#X obj 151 123 tgl 15 0 empty empty empty 17 7 0 10 -262144 -1 -1 0
1;
#X obj 151 148 + 1;
#X obj 196 149 average 3;
#X floatatom 247 124 5 2 20 0 - - -;
#X obj 151 204 outlet;
#X obj -13 37 inlet;
#X obj 151 31 inlet;
#X obj 272 31 inlet;
#X text -14 15 data;
#X text 149 12 smoothing on/off;
#X text 269 12 smoothing amount;
#X obj 163 67 loadbang;
#X msg 163 90 0;
#X connect 0 0 1 1;
#X connect 0 0 4 0;
#X connect 1 0 6 0;
#X connect 2 0 3 0;
#X connect 3 0 1 0;
#X connect 4 0 1 2;
#X connect 5 0 4 1;
#X connect 7 0 0 0;
#X connect 8 0 2 0;
#X connect 9 0 5 0;
#X connect 13 0 14 0;
#X connect 14 0 2 0;
#X restore 257 30 pd calibrate;
#X text 345 176 CALIBRATED VALUES--------^;
#X text 340 -59 Option 2: Scale and Smooth it -------------;
#X text 1035 -155 THRESHOLDS;
#X obj 1158 92 bng 15 250 50 0 empty empty empty 0 -6 0 8 -262144 -1
-1;
#X text 1154 107 bang;
#X obj 1035 41 r A0;
#X obj 1035 67 threshold 0.8 1 0.8 1;
#X text 698 20 Mapping/Scaling --------------------------;
#X text 1033 20 Recedes below Threshold -----------;
#X text 1035 -123 Exceeds Threshold ------------------;
#X text 30 240 -----------------------------------------------------------
;
#X text 385 240 -----------------------------------------------------------
;
#X text 740 240 -----------------------------------------------------------
;
#X text 1094 240 -------------------------------;
#X obj 33 433 loadbang;
#X obj 16 612 r A0;
#X obj 1082 206 bng 15 250 50 0 empty empty empty 17 7 0 10 -262144
-1 -1;
#X floatatom 478 44 5 0 0 0 - - -;
#X obj 478 74 vsl 15 75 0 1 0 0 empty empty A0 0 85 0 10 -262144 -1
-1 1396 1;
#X obj 515 -10 tgl 15 0 empty empty empty 17 7 0 10 -262144 -1 -1 1
1;
#X floatatom 550 -9 5 2 20 0 - - -;
#X text 512 -29 smoothing on/off;
#X text 587 -14 amount (default 3);
#N canvas 231 466 450 300 calibrate 0;
#X obj 151 173 switch 2;
#X obj 151 123 tgl 15 0 empty empty empty 17 7 0 10 -262144 -1 -1 1
1;
#X obj 151 148 + 1;
#X obj 196 149 average 3;
#X floatatom 247 124 5 2 20 0 - - -;
#X obj 151 204 outlet;
#X obj -13 37 inlet;
#X obj 151 31 inlet;
#X obj 272 31 inlet;
#X text -14 15 data;
#X text 149 12 smoothing on/off;
#X text 269 12 smoothing amount;
#X obj 163 67 loadbang;
#X msg 163 90 0;
#X obj -13 77 maxlib/scale 0 1.15 0 1;
#X connect 0 0 5 0;
#X connect 1 0 2 0;
#X connect 2 0 0 0;
#X connect 3 0 0 2;
#X connect 4 0 3 1;
#X connect 6 0 14 0;
#X connect 7 0 1 0;
#X connect 8 0 4 0;
#X connect 12 0 13 0;
#X connect 13 0 1 0;
#X connect 14 0 0 1;
#X connect 14 0 3 0;
#X restore 481 20 pd calibrate;
#X obj 497 72 s A1;
#X obj 580 207 maxlib/scale 0 1 200 1200;
#X obj 580 182 r A1;
#X connect 0 0 1 0;
#X connect 0 0 5 0;
#X connect 1 0 4 1;
#X connect 2 0 3 0;
#X connect 3 0 4 0;
#X connect 4 0 6 0;
#X connect 5 0 2 0;
#X connect 6 0 54 0;
#X connect 7 0 1 1;
#X connect 8 0 6 1;
#X connect 9 0 21 0;
#X connect 10 0 7 0;
#X connect 12 0 16 0;
#X connect 14 0 15 0;
#X connect 18 0 17 1;
#X connect 18 0 17 0;
#X connect 20 0 18 1;
#X connect 21 0 3 1;
#X connect 22 0 38 0;
#X connect 24 0 25 1;
#X connect 25 0 31 0;
#X connect 26 0 22 0;
#X connect 26 1 52 0;
#X connect 27 0 25 0;
#X connect 27 0 36 0;
#X connect 28 0 55 0;
#X connect 29 0 32 0;
#X connect 30 0 29 1;
#X connect 33 0 55 0;
#X connect 34 0 37 0;
#X connect 36 0 29 0;
#X connect 37 0 36 1;
#X connect 38 0 27 0;
#X connect 38 1 27 1;
#X connect 52 0 38 0;
#X connect 53 0 55 0;
#X connect 55 0 62 0;
#X connect 55 1 62 1;
#X connect 56 0 57 0;
#X connect 57 0 55 0;
#X connect 60 0 61 0;
#X connect 61 0 56 0;
#X connect 62 0 18 0;
#X connect 67 0 68 0;
#X connect 67 0 95 0;
#X connect 72 0 69 0;
#X connect 72 0 103 0;
#X connect 72 0 119 0;
#X connect 72 1 70 0;
#X connect 72 1 104 0;
#X connect 72 1 143 0;
#X connect 72 2 71 0;
#X connect 72 2 105 0;
#X connect 73 0 0 0;
#X connect 74 0 78 0;
#X connect 75 0 74 0;
#X connect 76 0 74 0;
#X connect 77 0 74 0;
#X connect 78 0 79 0;
#X connect 79 0 72 0;
#X connect 79 1 72 1;
#X connect 79 2 72 2;
#X connect 80 0 84 2;
#X connect 81 0 84 0;
#X connect 82 0 84 1;
#X connect 83 0 80 0;
#X connect 87 0 77 0;
#X connect 93 0 74 0;
#X connect 94 0 93 0;
#X connect 96 0 14 0;
#X connect 97 0 100 0;
#X connect 98 0 12 0;
#X connect 99 0 101 0;
#X connect 100 0 13 0;
#X connect 101 0 51 0;
#X connect 108 0 119 1;
#X connect 109 0 119 2;
#X connect 119 0 67 0;
#X connect 125 0 126 0;
#X connect 126 0 136 0;
#X connect 126 1 123 0;
#X connect 126 1 136 0;
#X connect 134 0 73 0;
#X connect 135 0 8 0;
#X connect 137 0 138 0;
#X connect 137 0 144 0;
#X connect 139 0 143 1;
#X connect 140 0 143 2;
#X connect 143 0 137 0;
#X connect 146 0 145 0;
#X coords 0 0 1 1 85 60 0;
