#N canvas 608 90 1447 1198 10;
#X obj 40 578 hsl 200 20 0 1 0 0 empty empty crossfade 20 10 0 14 -257472
-1 -1 12191 1;
#X obj 281 663 *~;
#X obj 37 637 -;
#X obj 37 664 *~;
#X obj 414 851 +~;
#X msg 37 617 1 \$1;
#X obj 413 1026 *~;
#X obj 296 377 osc~ 220;
#X obj 428 886 vsl 15 128 0 1 0 0 empty empty gain 0 -8 0 8 -262144
-1 -1 0 1;
#X floatatom 53 255 5 0 0 0 - - -;
#X floatatom 296 327 5 0 0 0 - - -;
#X obj 296 352 sig~;
#X obj 399 822 freeverb~;
#X obj 418 772 hsl 200 20 0 1 0 0 empty empty reverb_mix 20 10 0 14
-257472 -1 -1 15400 1;
#N canvas 613 434 450 300 reverb 0;
#X obj 119 -107 -;
#X msg 119 -127 1 \$1;
#X obj 68 -183 inlet;
#X obj 77 33 outlet;
#X msg 58 -44 wet \$1;
#X msg 120 -44 dry \$1;
#X connect 0 0 5 0;
#X connect 1 0 0 0;
#X connect 2 0 1 0;
#X connect 2 0 4 0;
#X connect 4 0 3 0;
#X connect 5 0 3 0;
#X restore 415 797 pd reverb;
#X text 413 753 dry;
#X text 600 753 wet;
#X obj 52 450 +~;
#X floatatom 77 322 5 0 20000 0 - - -;
#X obj 78 391 *~;
#X floatatom 93 368 5 0 0 0 - - -;
#X obj 107 393 tgl 15 0 empty empty empty 17 7 0 10 -203904 -1 -1 0
1;
#X obj 92 417 *~;
#X obj 1166 -300 pddp/dsp;
#X text 128 369 width;
#X text 113 322 frequency;
#X text 75 282 FREQUENCY MODULATION;
#X text 126 392 ON/OFF;
#X text 49 237 CARRIER FREQUENCY 1;
#X text 243 236 CARRIER FREQ 2;
#X obj 77 300 maxlib/scale 0 1 0 10;
#X obj 439 725 loadbang;
#X msg 439 749 0;
#X obj 37 555 maxlib/scale 0.3 0.7 0 1;
#X obj 245 280 moses 273;
#X obj 296 303 average 3;
#X obj 245 256 maxlib/scale 0.6 0.75 273 1900;
#X obj 944 415 moog~;
#X floatatom 1087 346 5 0 0 0 - - -;
#X floatatom 1024 322 5 0 0 0 - - -;
#X floatatom 866 331 5 0 0 0 - - -;
#X msg 944 389 reset;
#X obj 957 323 +~ 1;
#X floatatom 957 281 5 0 0 0 - - -;
#X floatatom 1021 346 5 0 0 0 - - -;
#X obj 957 364 +~ 100;
#X obj 957 302 osc~ 0.25;
#X obj 957 343 *~ 2000;
#X obj 1087 365 sig~ 3;
#X obj 866 357 phasor~ 110;
#X text 1133 346 Q (1-4);
#X obj 957 259 random 50;
#X obj 944 587 *~;
#X obj 959 448 vsl 15 128 0 1 0 0 empty empty moog 0 -8 0 8 -262144
-1 -1 7800 1;
#X obj 413 1053 dac~;
#X text 448 1052 hear it;
#X obj 1087 259 random 5;
#X obj 1087 281 - 1;
#X obj 866 259 random 1000;
#X obj 866 282 + 110;
#X obj 52 484 osc~ 330;
#X obj 78 346 phasor~;
#X msg 753 739 1;
#X obj 795 831 vsl 15 128 0 1 0 0 empty empty sample_dry 0 -8 0 8 -262144
-1 -1 0 1;
#X obj 780 971 *~;
#X obj 753 690 t b b;
#X obj 780 795 +~;
#X obj 399 630 r~ audio;
#X obj 1049 993 *~;
#X obj 1064 854 vsl 15 128 0 1 0 0 empty empty sample_wet 0 -8 0 8
-262144 -1 -1 0 1;
#X obj 780 996 s~ audio_sample;
#X obj 1049 1018 s~ audio_sample_delay;
#X obj 399 673 r~ audio_sample;
#X obj 399 697 r~ audio_sample_delay;
#X floatatom 1124 773 5 0 0 0 - - -;
#X text 1122 751 delay time (s);
#X obj 1049 821 delay~ 522050;
#X obj 1124 796 * 44100;
#X obj 780 768 readsf~ 2;
#X obj 161 903 *~;
#X obj 176 764 vsl 15 128 0 1 0 0 empty empty gain 0 -8 0 8 -262144
-1 -1 7100 1;
#X text 397 584 MAIN OUTPUT;
#X obj 161 729 +~;
#X obj 161 928 s~ audio;
#X obj 944 609 send~ audiomoog;
#X obj 399 651 r~ audiomoog;
#X text 955 242 resonance FM;
#X text 869 217 SIGNAL-CONTROLLED 'MOOG' LOWPASS FILTER;
#X text 749 660 PLAY A SAMPLE;
#X obj 869 785 gate 1;
#X obj 869 757 tgl 15 0 empty empty empty 17 7 0 10 -262144 -1 -1 0
1;
#X text 886 754 loop on/off;
#X obj 774 617 bng 15 250 50 0 empty empty empty 17 7 0 10 -262144
-1 -1;
#X obj 830 792 bng 15 250 50 0 empty empty empty 17 7 0 10 -262144
-1 -1;
#X msg 780 715 open samples/bell1.wav;
#X obj 686 -13 maxlib/scale 0 1 0 10;
#X obj 1023 -130 bng 15 250 50 0 empty empty empty 0 -6 0 8 -262144
-1 -1;
#X obj 686 -158 * 10;
#X floatatom 686 -135 5 0 0 0 - - -;
#X floatatom 686 10 5 0 0 0 - - -;
#X text 1019 -115 bang;
#X text 722 -158 Multiplication (magnification);
#X text 754 -121 Other operators;
#X obj 756 -101 +;
#X obj 785 -101 -;
#X obj 814 -101 * -1;
#X text 847 -102 etc.;
#X text 684 -201 Mathematical Operators -------------------;
#X text 683 -234 SCALING DATA;
#X floatatom 686 93 5 0 0 0 - - -;
#X text 17 105 RAW VALUES------------^;
#X floatatom 332 -28 5 0 0 0 - - -;
#X obj 332 2 vsl 15 75 0 1 0 0 empty empty A0 0 85 0 10 -262144 -1
-1 4033 1;
#X obj 24 20 vsl 15 60 0.03 0.84 0 0 empty empty A0 0 69 0 10 -262144
-1 -1 1092 1;
#X obj 79 19 vsl 15 60 0.03 0.84 0 0 empty empty A1 0 69 0 10 -262144
-1 -1 0 1;
#X obj 135 20 vsl 15 60 0.03 0.84 0 0 empty empty A2 0 69 0 10 -262144
-1 -1 0 1;
#N canvas 36 176 499 396 efficient 0;
#X obj 6 7 inlet;
#X obj 6 50 outlet;
#X obj 54 50 inlet;
#X obj 54 93 outlet;
#X obj 103 93 inlet;
#X obj 103 136 outlet;
#X obj 60 290 receive ARDUINO_TEST_RESET;
#X obj 6 28 mapping/resample 75;
#X obj 54 71 mapping/resample 75;
#X obj 103 114 mapping/resample 75;
#X connect 0 0 7 0;
#X connect 2 0 8 0;
#X connect 4 0 9 0;
#X connect 6 0 7 0;
#X connect 6 0 8 0;
#X connect 6 0 9 0;
#X connect 7 0 1 0;
#X connect 8 0 3 0;
#X connect 9 0 5 0;
#X restore 24 -35 pd efficient values;
#X obj 24 -114 arduino 2;
#X msg 35 -233 close;
#X msg 34 -210 devices;
#X msg 24 -256 open \$1;
#X obj 24 -87 route analog;
#X obj 24 -62 route 0 1 2;
#X obj 24 -278 hradio 15 1 0 4 empty empty empty 0 -8 0 10 -262144
-1 -1 3;
#X text 25 -311 ARDUINO CONNECT;
#X text 28 -295 0;
#X text 42 -295 1;
#X text 57 -295 2;
#X text 73 -295 3;
#X msg 42 -142 analogIns 0 1;
#N canvas 162 133 610 460 serin 0;
#X obj 59 337 outlet;
#X obj 59 266 trigger bang anything;
#X obj 201 286 list;
#X obj 60 61 tgl 15 0 junk_to_hide_inlet ARDUINO_TEST_RESET 0 5 9 1
12 -262130 -1 -1 1 1;
#X obj 75 61 tgl 15 0 junk_to_hide_inlet ARDUINO_TEST_RESET 1 5 9 1
12 -262130 -1 -1 0 1;
#X obj 90 61 tgl 15 0 junk_to_hide_inlet ARDUINO_TEST_RESET 2 5 9 1
12 -262130 -1 -1 0 1;
#X obj 105 61 tgl 15 0 junk_to_hide_inlet ARDUINO_TEST_RESET 3 5 9
1 12 -262130 -1 -1 0 1;
#X obj 120 61 tgl 15 0 junk_to_hide_inlet ARDUINO_TEST_RESET 4 5 9
1 12 -262130 -1 -1 0 1;
#X obj 135 61 tgl 15 0 junk_to_hide_inlet ARDUINO_TEST_RESET 5 5 9
1 12 -262130 -1 -1 0 1;
#X obj 150 61 tgl 15 0 junk_to_hide_inlet ARDUINO_TEST_RESET 6 5 9
1 12 -262130 -1 -1 0 1;
#X obj 165 61 tgl 15 0 junk_to_hide_inlet ARDUINO_TEST_RESET 7 5 9
1 12 -262130 -1 -1 0 1;
#X msg 59 210 analogIns \$1 \$2;
#X msg 35 106 0 \$1;
#X msg 70 106 1 \$1;
#X msg 105 106 2 \$1;
#X msg 140 106 3 \$1;
#X msg 175 106 4 \$1;
#X msg 210 106 5 \$1;
#X msg 245 106 6 \$1;
#X msg 280 106 7 \$1;
#X msg 202 307 set \$1 \$2 \$3;
#X connect 1 0 0 0;
#X connect 1 1 2 0;
#X connect 2 0 20 0;
#X connect 3 0 12 0;
#X connect 4 0 13 0;
#X connect 5 0 14 0;
#X connect 6 0 15 0;
#X connect 7 0 16 0;
#X connect 8 0 17 0;
#X connect 9 0 18 0;
#X connect 10 0 19 0;
#X connect 11 0 1 0;
#X connect 12 0 11 0;
#X connect 13 0 11 0;
#X connect 14 0 11 0;
#X connect 15 0 11 0;
#X connect 16 0 11 0;
#X connect 17 0 11 0;
#X connect 18 0 11 0;
#X connect 19 0 11 0;
#X connect 20 0 0 0;
#X coords 0 -1 1 1 120 16 1 60 60;
#X restore 42 -164 pd serin;
#X obj 351 0 s A0;
#X obj 686 -181 r A0;
#X obj 1023 -181 r A0;
#X obj 686 -38 r A0;
#X obj 686 45 r A0;
#X obj 1023 -155 threshold 0.8 1 0.8 1;
#X obj 686 70 maxlib/scale 0 1 200 1200;
#X text 728 9 map (0 \, 1) to (0 \, 10);
#X floatatom 38 -9 5 0 0 0 - - -;
#X floatatom 90 -10 5 0 0 0 - - -;
#X floatatom 147 -9 5 0 0 0 - - -;
#X text 729 92 map (0 \, 1) to (200 \, 1200);
#X obj 332 -175 maxlib/scale 0 0.33 0 1;
#X obj 386 -101 tgl 15 0 empty empty empty 17 7 0 10 -262144 -1 -1
1 1;
#X floatatom 421 -100 5 2 20 0 - - -;
#X text 383 -120 smoothing on/off;
#X text 90 -279 Step 2: Select Port;
#X text 88 -210 Step 1: Determine port;
#X text 83 -233 comment;
#X text 458 -105 amount (default 3);
#X text 43 -184 Step 3: Enable analogIns;
#X text 326 -231 CALIBRATE YOUR DATA;
#X text 326 -201 Option 1: Scale it ------------------------;
#N canvas 1897 584 450 300 calibrate 0;
#X obj -13 77 maxlib/scale 0 0.33 0 1;
#X obj 151 173 switch 2;
#X obj 151 123 tgl 15 0 empty empty empty 17 7 0 10 -262144 -1 -1 1
1;
#X obj 151 148 + 1;
#X obj 196 149 average 3;
#X floatatom 247 124 5 2 20 0 - - -;
#X obj 151 204 outlet;
#X obj -13 37 inlet;
#X obj 151 31 inlet;
#X obj 272 31 inlet;
#X text -14 15 data;
#X text 149 12 smoothing on/off;
#X text 269 12 smoothing amount;
#X obj 163 67 loadbang;
#X msg 163 90 0;
#X connect 0 0 1 1;
#X connect 0 0 4 0;
#X connect 1 0 6 0;
#X connect 2 0 3 0;
#X connect 3 0 1 0;
#X connect 4 0 1 2;
#X connect 5 0 4 1;
#X connect 7 0 0 0;
#X connect 8 0 2 0;
#X connect 9 0 5 0;
#X connect 13 0 14 0;
#X connect 14 0 2 0;
#X restore 352 -71 pd calibrate;
#X text 331 98 CALIBRATED VALUES--------^;
#X text 326 -137 Option 2: Scale and Smooth it -------------;
#X text 1021 -233 THRESHOLDS;
#X obj 1144 14 bng 15 250 50 0 empty empty empty 0 -6 0 8 -262144 -1
-1;
#X text 1140 29 bang;
#X obj 1021 -37 r A0;
#X obj 1021 -11 threshold 0.8 1 0.8 1;
#X text 684 -58 Mapping/Scaling --------------------------;
#X text 1019 -58 Recedes below Threshold -----------;
#X text 1021 -201 Exceeds Threshold ------------------;
#X text 13 132 -----------------------------------------------------------
;
#X text 368 132 -----------------------------------------------------------
;
#X text 723 132 -----------------------------------------------------------
;
#X text 1077 132 -------------------------------;
#X obj 1045 -130 s trigger_up;
#X obj 1170 14 s trigger_down;
#X obj 739 174 r trigger_down;
#X obj 658 174 r trigger_up;
#X obj 866 174 r trigger_up;
#X obj 957 174 r trigger_down;
#X obj 1087 174 r trigger_up;
#X obj 37 182 r A0;
#X obj 77 182 r A0;
#X obj 245 183 r A0;
#X connect 0 0 1 0;
#X connect 0 0 5 0;
#X connect 1 0 82 1;
#X connect 2 0 3 0;
#X connect 3 0 82 0;
#X connect 4 0 6 0;
#X connect 5 0 2 0;
#X connect 6 0 54 0;
#X connect 6 0 54 1;
#X connect 7 0 1 1;
#X connect 8 0 6 1;
#X connect 9 0 17 0;
#X connect 10 0 11 0;
#X connect 11 0 7 0;
#X connect 12 0 4 0;
#X connect 12 1 4 1;
#X connect 13 0 14 0;
#X connect 14 0 12 0;
#X connect 17 0 60 0;
#X connect 18 0 61 0;
#X connect 19 0 22 0;
#X connect 20 0 19 1;
#X connect 21 0 22 1;
#X connect 22 0 17 1;
#X connect 30 0 18 0;
#X connect 31 0 32 0;
#X connect 32 0 13 0;
#X connect 33 0 0 0;
#X connect 34 1 35 0;
#X connect 35 0 10 0;
#X connect 36 0 34 0;
#X connect 37 0 52 0;
#X connect 38 0 48 0;
#X connect 39 0 47 1;
#X connect 40 0 49 0;
#X connect 41 0 37 0;
#X connect 42 0 47 0;
#X connect 43 0 46 0;
#X connect 44 0 45 1;
#X connect 45 0 37 1;
#X connect 46 0 42 0;
#X connect 47 0 45 0;
#X connect 48 0 37 2;
#X connect 49 0 37 0;
#X connect 51 0 43 0;
#X connect 52 0 84 0;
#X connect 53 0 52 1;
#X connect 56 0 57 0;
#X connect 57 0 38 0;
#X connect 58 0 59 0;
#X connect 59 0 40 0;
#X connect 60 0 3 1;
#X connect 61 0 19 0;
#X connect 62 0 78 0;
#X connect 63 0 64 1;
#X connect 64 0 70 0;
#X connect 65 0 62 0;
#X connect 65 1 94 0;
#X connect 66 0 64 0;
#X connect 66 0 76 0;
#X connect 67 0 12 0;
#X connect 68 0 71 0;
#X connect 69 0 68 1;
#X connect 72 0 12 0;
#X connect 73 0 12 0;
#X connect 74 0 77 0;
#X connect 76 0 68 0;
#X connect 77 0 76 1;
#X connect 78 0 66 0;
#X connect 78 1 66 1;
#X connect 78 2 89 1;
#X connect 78 2 93 0;
#X connect 79 0 83 0;
#X connect 80 0 79 1;
#X connect 82 0 79 0;
#X connect 85 0 12 0;
#X connect 89 0 65 0;
#X connect 90 0 89 0;
#X connect 92 0 65 0;
#X connect 94 0 78 0;
#X connect 95 0 99 0;
#X connect 97 0 98 0;
#X connect 111 0 112 0;
#X connect 111 0 131 0;
#X connect 116 0 113 0;
#X connect 116 0 139 0;
#X connect 116 0 154 0;
#X connect 116 1 114 0;
#X connect 116 1 140 0;
#X connect 116 2 115 0;
#X connect 116 2 141 0;
#X connect 117 0 121 0;
#X connect 118 0 117 0;
#X connect 119 0 117 0;
#X connect 120 0 117 0;
#X connect 121 0 122 0;
#X connect 122 0 116 0;
#X connect 122 1 116 1;
#X connect 122 2 116 2;
#X connect 123 0 120 0;
#X connect 129 0 117 0;
#X connect 130 0 129 0;
#X connect 132 0 97 0;
#X connect 133 0 136 0;
#X connect 134 0 95 0;
#X connect 135 0 137 0;
#X connect 136 0 96 0;
#X connect 136 0 169 0;
#X connect 137 0 109 0;
#X connect 144 0 154 1;
#X connect 145 0 154 2;
#X connect 154 0 111 0;
#X connect 160 0 161 0;
#X connect 161 1 158 0;
#X connect 161 1 170 0;
#X connect 171 0 65 0;
#X connect 172 0 65 0;
#X connect 173 0 58 0;
#X connect 174 0 51 0;
#X connect 175 0 56 0;
#X connect 176 0 33 0;
#X connect 177 0 30 0;
#X connect 178 0 36 0;
#X coords 0 0 1 1 85 60 0;
