#N canvas 835 49 877 740 16;
#X declare -lib cyclone;
#X obj 292 20 import cyclone;
#X obj 533 20 pddp/dsp;
#X obj 8 10 cnv 15 400 40 empty empty hello_world 20 12 0 24 -228992
-66577 0;
#X text 309 111 2 create an object called: osc~;
#X text 309 81 1 create a message box with the text: 200;
#X text 309 141 3 create an object called: dac~;
#X text 309 171 4 connect the message box to the osc~ object's left
inlet;
#X text 309 201 5 connect the osc~ object to both inlets of the dac~
object;
#X text 309 231 6 make sure your volume is set very low;
#X text 310 262 7 turn on DSP by clicking the box on the upper right
corner;
#X text 309 291 8 click the message box to hear sound;
#N canvas 0 22 454 304 how 0;
#X text 14 9 It seems every different keyboard has a different way
to type the tilde "~". Here is a list of how to type the tilde on various
keyboards:;
#X text 16 141 Mac OS X;
#X text 16 211 Windows;
#X text 37 252 Spanish: Alt-4-space;
#X text 37 162 German: Alt-N-space;
#X text 16 91 GNU/Linux;
#X text 37 232 Any keyboard with a number pad: Alt-126;
#X text 37 59 US: shift and the most upper-left key \, below Esc;
#X restore 316 365 pd how to type ~;
#X msg 70 92 200;
#X obj 25 337 osc~;
#X obj 120 639 dac~;
#X obj 89 147 vsl 15 128 0 1500 0 0 empty empty empty 0 -9 0 10 -262144
-1 -1 9300 1;
#X floatatom 134 311 5 0 0 0 - - -;
#X obj 132 548 *~;
#X obj 158 401 vsl 15 128 0 1 0 0 empty empty empty 0 -9 0 10 -262144
-1 -1 0 1;
#X floatatom 190 564 5 0 0 0 - - -;
#X obj 197 372 line;
#X msg 230 295 0 2000;
#X msg 227 248 1 2000;
#X connect 12 0 15 0;
#X connect 13 0 17 0;
#X connect 15 0 16 0;
#X connect 15 0 13 0;
#X connect 17 0 14 0;
#X connect 17 0 14 1;
#X connect 18 0 17 1;
#X connect 18 0 19 0;
#X connect 20 0 18 0;
#X connect 21 0 20 0;
#X connect 22 0 20 0;
