#N canvas 1572 478 1463 806 16;
#X obj 44 270 metro 500;
#X obj 44 317 bng 15 250 50 0 empty empty empty 17 7 0 10 -262144 -1
-1;
#X obj 44 242 tgl 15 0 empty empty empty 17 7 0 10 -262144 -1 -1 0
1;
#X floatatom 131 21 5 0 0 0 - - -;
#X text 72 21 "knob";
#X obj 197 143 sel 500;
#X obj 453 210 bng 15 250 50 0 empty empty empty 17 7 0 10 -262144
-1 -1;
#X obj 656 211 bng 15 250 50 0 empty empty empty 17 7 0 10 -262144
-1 -1;
#X obj 475 207 print exceeds;
#X obj 678 208 print recedes;
#X obj 531 181 bng 15 250 50 0 empty empty empty 17 7 0 10 -262144
-1 -1;
#X msg 197 201 1;
#X msg 264 201 0;
#X msg 434 243 1;
#X msg 641 244 0;
#X obj 851 135 key;
#X floatatom 896 136 5 0 0 0 - - -;
#X obj 851 183 sel 49;
#X obj 851 218 bng 15 250 50 0 empty empty empty 17 7 0 10 -262144
-1 -1;
#X obj 955 184 sel 50;
#X obj 955 217 bng 15 250 50 0 empty empty empty 17 7 0 10 -262144
-1 -1;
#X msg 851 240 1;
#X msg 955 240 0;
#X obj 1056 184 sel 32;
#X obj 1056 216 bng 15 250 50 0 empty empty empty 17 7 0 10 -262144
-1 -1;
#X obj 131 -72 ctlin;
#X floatatom 131 -31 5 0 0 0 - - -;
#X floatatom 189 -31 5 0 0 0 - - -;
#X floatatom 248 -31 5 0 0 0 - - -;
#X obj 1225 124 notein;
#X floatatom 1225 172 5 0 0 0 - - -;
#X floatatom 1253 207 5 0 0 0 - - -;
#X floatatom 1282 240 5 0 0 0 - - -;
#X obj 1300 311 trigger bang;
#X obj 1253 276 sel 0;
#X obj 44 207 r metro;
#X obj 434 144 threshold 500 0 300 0;
#X obj 191 545 switch 4;
#X obj 191 579 s metro;
#X msg 191 389 1;
#X msg 305 388 3;
#X msg 359 387 4;
#X msg 248 389 2;
#X obj 191 338 loadbang;
#X text 915 183 "1";
#X text 1020 183 "2";
#X text 1123 182 "space";
#X text 845 97 [3] use keyboard to control;
#X text 191 105 [1] simple select trigger;
#X text 431 101 [2] using threshold;
#X text 1217 90 [4] midi keyboard;
#X text 130 -99 midi controller in;
#X connect 0 0 1 0;
#X connect 2 0 0 0;
#X connect 3 0 0 1;
#X connect 3 0 5 0;
#X connect 3 0 36 0;
#X connect 5 0 11 0;
#X connect 5 1 12 0;
#X connect 11 0 37 1;
#X connect 12 0 37 1;
#X connect 13 0 37 2;
#X connect 14 0 37 2;
#X connect 15 0 16 0;
#X connect 15 0 17 0;
#X connect 15 0 19 0;
#X connect 15 0 23 0;
#X connect 17 0 18 0;
#X connect 18 0 21 0;
#X connect 19 0 20 0;
#X connect 20 0 22 0;
#X connect 21 0 37 3;
#X connect 22 0 37 3;
#X connect 23 0 24 0;
#X connect 24 0 37 3;
#X connect 25 0 26 0;
#X connect 25 1 27 0;
#X connect 25 2 28 0;
#X connect 26 0 3 0;
#X connect 29 0 30 0;
#X connect 29 1 31 0;
#X connect 29 2 32 0;
#X connect 31 0 34 0;
#X connect 33 0 37 4;
#X connect 34 1 33 0;
#X connect 35 0 2 0;
#X connect 36 0 6 0;
#X connect 36 0 8 0;
#X connect 36 0 10 0;
#X connect 36 0 13 0;
#X connect 36 1 7 0;
#X connect 36 1 9 0;
#X connect 36 1 10 0;
#X connect 36 1 14 0;
#X connect 37 0 38 0;
#X connect 39 0 37 0;
#X connect 40 0 37 0;
#X connect 41 0 37 0;
#X connect 42 0 37 0;
#X connect 43 0 39 0;
